<svg width="53" height="53" viewBox="0 0 53 53" fill="none" xmlns="http://www.w3.org/2000/svg">
<path d="M40.1641 46.375C38.2805 46.375 36.4392 45.8165 34.8731 44.77C33.307 43.7236 32.0864 42.2362 31.3656 40.496C30.6448 38.7558 30.4562 36.841 30.8236 34.9936C31.1911 33.1463 32.0981 31.4494 33.43 30.1175C34.7619 28.7856 36.4588 27.8786 38.3061 27.5111C40.1535 27.1437 42.0683 27.3322 43.8085 28.0531C45.5487 28.7739 47.0361 29.9945 48.0825 31.5606C49.129 33.1267 49.6875 34.968 49.6875 36.8516C49.6848 39.3765 48.6805 41.7972 46.8951 43.5826C45.1097 45.368 42.689 46.3723 40.1641 46.375ZM40.1641 30.6406C38.9357 30.6406 37.7348 31.0049 36.7135 31.6874C35.6921 32.3698 34.896 33.3398 34.4259 34.4747C33.9558 35.6096 33.8328 36.8585 34.0725 38.0633C34.3121 39.2681 34.9037 40.3747 35.7723 41.2434C36.6409 42.112 37.7476 42.7035 38.9524 42.9432C40.1572 43.1828 41.406 43.0598 42.5409 42.5897C43.6758 42.1196 44.6458 41.3236 45.3283 40.3022C46.0107 39.2808 46.375 38.08 46.375 36.8516C46.3731 35.2049 45.7181 33.6262 44.5537 32.4619C43.3894 31.2975 41.8107 30.6425 40.1641 30.6406ZM12.8359 46.375C10.9524 46.375 9.11112 45.8165 7.545 44.77C5.97888 43.7236 4.75824 42.2362 4.03743 40.496C3.31663 38.7558 3.12803 36.841 3.49549 34.9936C3.86296 33.1463 4.76998 31.4494 6.10185 30.1175C7.43373 28.7856 9.13064 27.8786 10.978 27.5111C12.8254 27.1437 14.7402 27.3322 16.4804 28.0531C18.2206 28.7739 19.7079 29.9945 20.7544 31.5606C21.8008 33.1267 22.3594 34.968 22.3594 36.8516C22.3566 39.3765 21.3524 41.7972 19.567 43.5826C17.7816 45.368 15.3609 46.3723 12.8359 46.375ZM12.8359 30.6406C11.6075 30.6406 10.4067 31.0049 9.38533 31.6874C8.36395 32.3698 7.56788 33.3398 7.09778 34.4747C6.62769 35.6096 6.5047 36.8585 6.74435 38.0633C6.984 39.2681 7.57553 40.3747 8.44415 41.2434C9.31276 42.112 10.4194 42.7035 11.6242 42.9432C12.8291 43.1828 14.0779 43.0598 15.2128 42.5897C16.3477 42.1196 17.3177 41.3236 18.0001 40.3022C18.6826 39.2808 19.0469 38.08 19.0469 36.8516C19.045 35.2049 18.39 33.6262 17.2256 32.4619C16.0613 31.2975 14.4826 30.6425 12.8359 30.6406ZM33.125 13.25C33.5613 13.2515 33.9936 13.1665 34.3968 12.9999C34.8001 12.8334 35.1663 12.5885 35.4743 12.2795C35.7824 11.9705 36.0261 11.6035 36.1914 11.1997C36.3567 10.796 36.4404 10.3634 36.4375 9.92715C36.4423 9.49303 36.3606 9.06232 36.197 8.66018C36.0334 8.25804 35.7913 7.89255 35.4848 7.58509C35.1783 7.27762 34.8135 7.03435 34.4119 6.8695C34.0103 6.70465 33.5798 6.62153 33.1457 6.625C32.7107 6.62364 32.2797 6.70797 31.8773 6.87318C31.4749 7.0384 31.1089 7.28125 30.8004 7.58789C30.4918 7.89452 30.2467 8.25892 30.079 8.6603C29.9112 9.06167 29.8242 9.49214 29.8229 9.92715C29.8215 10.3621 29.9058 10.7932 30.071 11.1956C30.2363 11.598 30.4791 11.9639 30.7857 12.2725C31.0924 12.581 31.4568 12.8262 31.8582 12.9939C32.2595 13.1616 32.69 13.2486 33.125 13.25Z" fill="white"/>
<path d="M38.0472 19.875H33.5173C33.443 19.875 33.3701 19.855 33.3061 19.8172C33.2422 19.7793 33.1897 19.7249 33.154 19.6597L29.8684 13.6382C29.6369 13.1907 29.3033 12.804 28.8946 12.5094C28.4858 12.2148 28.0135 12.0206 27.5158 11.9425C27.018 11.8644 26.5089 11.9046 26.0296 12.0598C25.5503 12.215 25.1143 12.4809 24.7568 12.8359L17.5252 20.1234C16.9177 20.7435 16.5728 21.5741 16.5625 22.4422C16.5625 24.2434 17.8668 24.8852 18.4775 25.2475C21.4277 26.9472 23.5053 28.1904 24.645 28.8809C24.7056 28.9177 24.7557 28.9696 24.7905 29.0314C24.8253 29.0932 24.8436 29.1629 24.8438 29.2338V36.3888C24.8438 37.2801 25.529 38.0451 26.4203 38.0896C26.6441 38.1004 26.8677 38.0657 27.0776 37.9875C27.2876 37.9094 27.4795 37.7895 27.6418 37.635C27.8041 37.4806 27.9334 37.2948 28.0218 37.089C28.1102 36.8832 28.1559 36.6615 28.1562 36.4375V27.5352C28.1564 27.2722 28.094 27.013 27.9741 26.779C27.8542 26.545 27.6803 26.3429 27.4668 26.1895L23.6368 23.4349C23.5887 23.4005 23.5485 23.3562 23.519 23.305C23.4895 23.2538 23.4712 23.1968 23.4656 23.138C23.4599 23.0792 23.4668 23.0198 23.486 22.9639C23.5052 22.9079 23.5361 22.8568 23.5767 22.8138L27.9244 18.1773C27.969 18.1296 28.0242 18.0932 28.0855 18.0709C28.1469 18.0486 28.2127 18.0411 28.2775 18.0491C28.3423 18.0571 28.4043 18.0802 28.4584 18.1168C28.5125 18.1533 28.5573 18.202 28.5889 18.2591L30.8477 22.3356C30.9912 22.594 31.2013 22.8093 31.4561 22.9591C31.711 23.1089 32.0013 23.1877 32.2969 23.1875H38.0938C38.3181 23.1878 38.5402 23.1424 38.7465 23.0543C38.9529 22.9661 39.1391 22.8369 39.294 22.6746C39.4489 22.5122 39.5692 22.3201 39.6476 22.1099C39.7259 21.8996 39.7608 21.6757 39.75 21.4515C39.7065 20.5603 38.9384 19.875 38.0472 19.875Z" fill="white"/>
</svg>
