<svg width="40" height="40" viewBox="0 0 40 40" fill="none" xmlns="http://www.w3.org/2000/svg">
<path d="M19.9999 3.33325C10.7999 3.33325 3.33325 10.7999 3.33325 19.9999C3.33325 29.1999 10.7999 36.6666 19.9999 36.6666C29.1999 36.6666 36.6666 29.1999 36.6666 19.9999C36.6666 10.7999 29.1999 3.33325 19.9999 3.33325ZM27.7332 14.6666C27.4832 17.2999 26.3999 23.6999 25.8499 26.6499C25.6166 27.8999 25.1499 28.3166 24.7166 28.3666C23.7499 28.4499 23.0166 27.7333 22.0833 27.1166C20.6166 26.1499 19.7833 25.5499 18.3666 24.6166C16.7166 23.5333 17.7833 22.9333 18.7333 21.9666C18.9833 21.7166 23.2499 17.8333 23.3333 17.4833C23.3448 17.4302 23.3433 17.3752 23.3288 17.3229C23.3142 17.2706 23.2872 17.2227 23.2499 17.1833C23.1499 17.0999 23.0166 17.1333 22.8999 17.1499C22.7499 17.1833 20.4166 18.7333 15.8666 21.7999C15.1999 22.2499 14.5999 22.4833 14.0666 22.4666C13.4666 22.4499 12.3333 22.1333 11.4833 21.8499C10.4333 21.5166 9.61659 21.3333 9.68325 20.7499C9.71659 20.4499 10.1333 20.1499 10.9166 19.8333C15.7833 17.7166 19.0166 16.3166 20.6333 15.6499C25.2666 13.7166 26.2166 13.3833 26.8499 13.3833C26.9833 13.3833 27.2999 13.4166 27.4999 13.5833C27.6666 13.7166 27.7166 13.8999 27.7332 14.0333C27.7166 14.1333 27.7499 14.4333 27.7332 14.6666Z" fill="white"/>
</svg>
